<svg width="20" height="23" viewBox="0 0 20 23" fill="none" xmlns="http://www.w3.org/2000/svg">
<path d="M20 20.184C20 20.6773 19.5855 21.0771 19.0741 21.0771H18.1481V21.9702C18.1481 22.4635 17.7336 22.8633 17.2222 22.8633C16.7108 22.8633 16.2963 22.4635 16.2963 21.9702V21.0771H15.3704C14.859 21.0771 14.4444 20.6773 14.4444 20.184C14.4444 19.6908 14.859 19.2909 15.3704 19.2909H16.2963V18.3978C16.2963 17.9046 16.7108 17.5047 17.2222 17.5047C17.7336 17.5047 18.1481 17.9046 18.1481 18.3978V19.2909H19.0741C19.5855 19.2909 20 19.6908 20 20.184ZM20 6.25169V14.8254C20 15.3187 19.5855 15.7185 19.0741 15.7185C18.5627 15.7185 18.1481 15.3187 18.1481 14.8254V7.14478H16.2963V9.82408C16.2963 10.3173 15.8818 10.7172 15.3704 10.7172C14.859 10.7172 14.4444 10.3173 14.4444 9.82408V7.14478H5.55556V9.82408C5.55556 10.3173 5.14102 10.7172 4.62963 10.7172C4.11824 10.7172 3.7037 10.3173 3.7037 9.82408V7.14478H1.85185V21.0771H11.6667C12.1781 21.0771 12.5926 21.477 12.5926 21.9702C12.5926 22.4635 12.1781 22.8633 11.6667 22.8633H0.925926C0.414537 22.8633 0 22.4635 0 21.9702V6.25169C0 5.75843 0.414537 5.35859 0.925926 5.35859H3.7475C4.11532 2.34541 6.77884 0 10 0C13.2212 0 15.8847 2.34541 16.2525 5.35859H19.0741C19.5855 5.35859 20 5.75843 20 6.25169ZM14.3824 5.35859C14.0287 3.33371 12.1983 1.7862 10 1.7862C7.80171 1.7862 5.97134 3.33371 5.61764 5.35859H14.3824Z"/>
</svg>
