<svg width="156" height="14" viewBox="0 0 156 14" fill="none" xmlns="http://www.w3.org/2000/svg">
<path d="M6.46365 13.288C5.41965 13.288 4.39965 13.174 3.40365 12.946C2.41965 12.706 1.60965 12.388 0.973647 11.992L2.34165 8.896C2.94165 9.244 3.61365 9.526 4.35765 9.742C5.10165 9.946 5.81565 10.048 6.49965 10.048C7.08765 10.048 7.50765 9.994 7.75965 9.886C8.01165 9.766 8.13765 9.592 8.13765 9.364C8.13765 9.1 7.96965 8.902 7.63365 8.77C7.30965 8.638 6.76965 8.494 6.01365 8.338C5.04165 8.134 4.23165 7.918 3.58365 7.69C2.93565 7.45 2.37165 7.066 1.89165 6.538C1.41165 5.998 1.17165 5.272 1.17165 4.36C1.17165 3.568 1.39365 2.848 1.83765 2.2C2.28165 1.552 2.94165 1.042 3.81765 0.669999C4.70565 0.297999 5.77965 0.112 7.03965 0.112C7.90365 0.112 8.74965 0.207999 9.57765 0.399999C10.4176 0.579999 11.1556 0.849999 11.7916 1.21L10.5136 4.288C9.27765 3.664 8.10765 3.352 7.00365 3.352C5.91165 3.352 5.36565 3.616 5.36565 4.144C5.36565 4.396 5.52765 4.588 5.85165 4.72C6.17565 4.84 6.70965 4.972 7.45365 5.116C8.41365 5.296 9.22365 5.506 9.88365 5.746C10.5436 5.974 11.1136 6.352 11.5936 6.88C12.0856 7.408 12.3316 8.128 12.3316 9.04C12.3316 9.832 12.1096 10.552 11.6656 11.2C11.2216 11.836 10.5556 12.346 9.66765 12.73C8.79165 13.102 7.72365 13.288 6.46365 13.288ZM18.8559 3.694H15.1659V0.399999H26.7939V3.694H23.1039V13H18.8559V3.694ZM38.5505 10.804H33.7625L32.9165 13H28.5965L34.1045 0.399999H38.2805L43.7885 13H39.3965L38.5505 10.804ZM37.3805 7.744L36.1565 4.576L34.9325 7.744H37.3805ZM52.5664 9.832H51.4144V13H47.1664V0.399999H53.2324C54.3964 0.399999 55.4104 0.591999 56.2744 0.975999C57.1384 1.36 57.8044 1.912 58.2724 2.632C58.7404 3.352 58.9744 4.192 58.9744 5.152C58.9744 6.052 58.7704 6.838 58.3624 7.51C57.9544 8.182 57.3664 8.716 56.5984 9.112L59.2444 13H54.7084L52.5664 9.832ZM54.6904 5.152C54.6904 4.684 54.5464 4.324 54.2584 4.072C53.9704 3.808 53.5384 3.676 52.9624 3.676H51.4144V6.628H52.9624C53.5384 6.628 53.9704 6.502 54.2584 6.25C54.5464 5.986 54.6904 5.62 54.6904 5.152ZM73.3585 6.412C74.1025 6.688 74.6785 7.09 75.0865 7.618C75.4945 8.146 75.6985 8.782 75.6985 9.526C75.6985 10.63 75.2425 11.488 74.3305 12.1C73.4185 12.7 72.0985 13 70.3705 13H63.2785V0.399999H70.0105C71.6905 0.399999 72.9565 0.699999 73.8085 1.3C74.6725 1.9 75.1045 2.698 75.1045 3.694C75.1045 4.282 74.9545 4.81 74.6545 5.278C74.3665 5.746 73.9345 6.124 73.3585 6.412ZM67.4545 3.37V5.242H69.4345C70.3585 5.242 70.8205 4.93 70.8205 4.306C70.8205 3.682 70.3585 3.37 69.4345 3.37H67.4545ZM70.0105 10.03C70.9465 10.03 71.4145 9.7 71.4145 9.04C71.4145 8.38 70.9465 8.05 70.0105 8.05H67.4545V10.03H70.0105ZM85.9304 13.288C83.9984 13.288 82.4924 12.766 81.4124 11.722C80.3324 10.678 79.7924 9.214 79.7924 7.33V0.399999H84.0404V7.204C84.0404 8.128 84.2024 8.8 84.5264 9.22C84.8624 9.64 85.3424 9.85 85.9664 9.85C86.5904 9.85 87.0644 9.64 87.3884 9.22C87.7244 8.8 87.8924 8.128 87.8924 7.204V0.399999H92.0684V7.33C92.0684 9.214 91.5284 10.678 90.4484 11.722C89.3684 12.766 87.8624 13.288 85.9304 13.288ZM103.232 13.288C101.9 13.288 100.7 13.012 99.6316 12.46C98.5636 11.896 97.7236 11.116 97.1116 10.12C96.5116 9.112 96.2116 7.972 96.2116 6.7C96.2116 5.428 96.5116 4.294 97.1116 3.298C97.7236 2.29 98.5636 1.51 99.6316 0.957999C100.7 0.394 101.9 0.112 103.232 0.112C104.456 0.112 105.548 0.328 106.508 0.76C107.468 1.192 108.26 1.816 108.884 2.632L106.202 5.026C105.422 4.042 104.504 3.55 103.448 3.55C102.56 3.55 101.846 3.838 101.306 4.414C100.766 4.978 100.496 5.74 100.496 6.7C100.496 7.66 100.766 8.428 101.306 9.004C101.846 9.568 102.56 9.85 103.448 9.85C104.504 9.85 105.422 9.358 106.202 8.374L108.884 10.768C108.26 11.584 107.468 12.208 106.508 12.64C105.548 13.072 104.456 13.288 103.232 13.288ZM117.94 8.824L116.986 9.886V13H112.81V0.399999H116.986V4.972L121.126 0.399999H125.752L120.712 5.944L126.004 13H121.09L117.94 8.824ZM133.708 13.288C132.664 13.288 131.644 13.174 130.648 12.946C129.664 12.706 128.854 12.388 128.218 11.992L129.586 8.896C130.186 9.244 130.858 9.526 131.602 9.742C132.346 9.946 133.06 10.048 133.744 10.048C134.332 10.048 134.752 9.994 135.004 9.886C135.256 9.766 135.382 9.592 135.382 9.364C135.382 9.1 135.214 8.902 134.878 8.77C134.554 8.638 134.014 8.494 133.258 8.338C132.286 8.134 131.476 7.918 130.828 7.69C130.18 7.45 129.616 7.066 129.136 6.538C128.656 5.998 128.416 5.272 128.416 4.36C128.416 3.568 128.638 2.848 129.082 2.2C129.526 1.552 130.186 1.042 131.062 0.669999C131.95 0.297999 133.024 0.112 134.284 0.112C135.148 0.112 135.994 0.207999 136.822 0.399999C137.662 0.579999 138.4 0.849999 139.036 1.21L137.758 4.288C136.522 3.664 135.352 3.352 134.248 3.352C133.156 3.352 132.61 3.616 132.61 4.144C132.61 4.396 132.772 4.588 133.096 4.72C133.42 4.84 133.954 4.972 134.698 5.116C135.658 5.296 136.468 5.506 137.128 5.746C137.788 5.974 138.358 6.352 138.838 6.88C139.33 7.408 139.576 8.128 139.576 9.04C139.576 9.832 139.354 10.552 138.91 11.2C138.466 11.836 137.8 12.346 136.912 12.73C136.036 13.102 134.968 13.288 133.708 13.288ZM149.408 0.346C150.596 0.346 151.67 0.622 152.63 1.174C153.602 1.726 154.364 2.488 154.916 3.46C155.468 4.42 155.744 5.488 155.744 6.664C155.744 7.84 155.462 8.92 154.898 9.904C154.334 10.876 153.566 11.644 152.594 12.208C151.622 12.772 150.548 13.054 149.372 13.054C148.196 13.054 147.122 12.772 146.15 12.208C145.19 11.644 144.428 10.876 143.864 9.904C143.312 8.932 143.036 7.864 143.036 6.7C143.036 5.536 143.312 4.468 143.864 3.496C144.428 2.524 145.196 1.756 146.168 1.192C147.14 0.628 148.22 0.346 149.408 0.346ZM152.972 9.814C153.692 8.926 154.052 7.876 154.052 6.664C154.052 5.764 153.854 4.954 153.458 4.234C153.062 3.514 152.51 2.95 151.802 2.542C151.106 2.134 150.308 1.93 149.408 1.93C148.508 1.93 147.704 2.14 146.996 2.56C146.288 2.98 145.73 3.556 145.322 4.288C144.926 5.008 144.728 5.812 144.728 6.7C144.728 7.588 144.926 8.398 145.322 9.13C145.73 9.85 146.282 10.42 146.978 10.84C147.686 11.26 148.484 11.47 149.372 11.47C150.032 11.47 150.65 11.35 151.226 11.11C151.802 10.87 152.3 10.528 152.72 10.084H150.524L149.408 8.356H148.994V10.084H146.402V3.316H149.624C150.62 3.316 151.4 3.544 151.964 4C152.528 4.456 152.81 5.068 152.81 5.836C152.81 6.784 152.45 7.468 151.73 7.888L152.972 9.814ZM149.462 6.574C149.702 6.574 149.888 6.508 150.02 6.376C150.152 6.244 150.218 6.064 150.218 5.836C150.218 5.608 150.152 5.428 150.02 5.296C149.888 5.164 149.702 5.098 149.462 5.098H148.994V6.574H149.462Z" fill="#92AEAC"/>
</svg>
